<svg id="visual" viewBox="0 0 900 600" width="900" height="600" xmlns="http://www.w3.org/2000/svg" xmlns:xlink="http://www.w3.org/1999/xlink" version="1.1"><rect x="0" y="0" width="900" height="600" fill="#ffffff"></rect><path d="M0 458L30 451.8C60 445.7 120 433.3 180 446C240 458.7 300 496.3 360 492.5C420 488.7 480 443.3 540 445.3C600 447.3 660 496.7 720 513.5C780 530.3 840 514.7 870 506.8L900 499L900 601L870 601C840 601 780 601 720 601C660 601 600 601 540 601C480 601 420 601 360 601C300 601 240 601 180 601C120 601 60 601 30 601L0 601Z" fill="#F7770F" stroke-linecap="round" stroke-linejoin="miter"></path></svg>